<svg width="17" height="17" viewBox="0 0 17 17" fill="none" xmlns="http://www.w3.org/2000/svg">
<path fill-rule="evenodd" clip-rule="evenodd" d="M15.3047 5.82012C16.281 4.84381 16.281 3.2609 15.3047 2.28459L14.7155 1.69533C13.7391 0.719019 12.1562 0.719019 11.1799 1.69533L1.69097 11.1843C1.34624 11.529 1.10982 11.967 1.01082 12.4444L0.341106 15.6737C0.219324 16.2609 0.739063 16.7807 1.32629 16.6589L4.55565 15.9892C5.03302 15.8902 5.47103 15.6538 5.81577 15.3091L15.3047 5.82012ZM14.1262 3.4631L13.5369 2.87384C13.2115 2.5484 12.6839 2.5484 12.3584 2.87384L11.4745 3.75775L13.2423 5.52552L14.1262 4.64161C14.4516 4.31617 14.4516 3.78853 14.1262 3.4631ZM12.0638 6.70403L10.296 4.93626L2.86948 12.3628C2.75457 12.4777 2.67577 12.6237 2.64277 12.7828L2.23082 14.7692L4.21721 14.3573C4.37634 14.3243 4.52234 14.2455 4.63726 14.1305L12.0638 6.70403Z" fill="#667085"/>
</svg>
