<svg width="23" height="20" viewBox="0 0 23 20" fill="none" xmlns="http://www.w3.org/2000/svg">
<g clip-path="url(#clip0_7_666)">
<path d="M22.1015 18.2109L17.0528 13.6094C18.3042 12.2188 19.0586 10.4375 19.0586 8.49609C19.0586 4.04297 15.0941 0.429688 10.2082 0.429688C5.31801 0.429688 1.35785 4.04297 1.35785 8.49609C1.35785 12.9492 5.31801 16.5625 10.2082 16.5625C12.3383 16.5625 14.2884 15.8789 15.8141 14.7383L20.8629 19.3359C21.2058 19.6484 21.7587 19.6484 22.1015 19.3359C22.4444 19.0273 22.4444 18.5195 22.1015 18.2109ZM10.2082 14.957C6.29519 14.957 3.11506 12.0586 3.11506 8.49609C3.11506 4.93359 6.29519 2.03125 10.2082 2.03125C14.1169 2.03125 17.3013 4.93359 17.3013 8.49609C17.3013 12.0586 14.1169 14.957 10.2082 14.957Z" fill="#718EBF"/>
</g>
<defs>
<clipPath id="clip0_7_666">
<rect width="21.9437" height="20" fill="white" transform="translate(0.886414)"/>
</clipPath>
</defs>
</svg>
